# xmcd
#
# Track frame offsets: 
#        150
#        19665
#        41627
#        63460
#        81810
#        103652
#        122265
#        135805
#        160260
#        178637
#
# Disc length: 2560 seconds
#
# Revision: 5
# Processed by: cddbd v1.5.2PL0 Copyright (c) Steve Scherf et al.
# Submitted via: ExactAudioCopy v1.3
#
DISCID=7309fe0a
DTITLE=The Jayhawks - Hollywood Town Hall
DYEAR=1992
DGENRE=Alternative
TTITLE0=Waiting for the Sun
TTITLE1=Crowded in the Wings
TTITLE2=Clouds
TTITLE3=Two Angels
TTITLE4=Take Me With You (When You Go)
TTITLE5=Sister Cry
TTITLE6=Settled Down Like Rain
TTITLE7=Wichita
TTITLE8=Nevada, California
TTITLE9=Martin's Song
EXTD=
EXTT0=
EXTT1=
EXTT2=
EXTT3=
EXTT4=
EXTT5=
EXTT6=
EXTT7=
EXTT8=
EXTT9=
PLAYORDER=
